<svg width="18" height="26" viewBox="0 0 18 26" fill="none" xmlns="http://www.w3.org/2000/svg">
<path d="M15.2026 19.6797C13.3797 20.7804 11.2658 21.415 9.03589 21.415C6.80598 21.415 4.69206 20.7804 2.86918 19.6797L1.32422 23.2117C3.60227 24.3999 6.22608 25.0695 9.03589 25.0695C11.8457 25.0695 14.4673 24.4043 16.7476 23.2117L15.2026 19.6797Z" fill="#61ABF4"/>
<path d="M17.8346 2.58803V0.769531H8.65897C3.9103 0.955539 0.238281 4.6757 0.238281 9.22085C0.238281 13.766 4.10506 17.6744 9.03755 17.6744C13.97 17.6744 17.8346 13.882 17.8346 9.22085C17.8346 7.36734 17.2219 5.64513 16.1737 4.24897C16.631 4.24897 17.0468 4.06296 17.3488 3.76098C17.6486 3.46117 17.8368 3.0432 17.8368 2.58584L17.8346 2.58803ZM9.03755 14.1862C6.23211 14.1862 3.95844 12.0985 3.95844 9.21867C3.95844 6.33883 6.23211 4.24678 9.03755 4.24678C11.843 4.24678 14.121 6.33445 14.121 9.21867C14.121 12.1029 11.843 14.1862 9.03755 14.1862Z" fill="#61ABF4"/>
</svg>
